<?xml version="1.0" encoding="UTF-8"?>
<!--Generator: Apple Native CoreSVG 232.5-->
<!DOCTYPE svg
PUBLIC "-//W3C//DTD SVG 1.1//EN"
       "http://www.w3.org/Graphics/SVG/1.1/DTD/svg11.dtd">
<svg version="1.1" xmlns="http://www.w3.org/2000/svg" xmlns:xlink="http://www.w3.org/1999/xlink" width="172.815" height="128.609">
 <g>
  <rect height="128.609" opacity="0" width="172.815" x="0" y="0"/>
  <path d="M1.30023 112.766C6.81781 130.735 34.0639 133.713 63.8002 120.188L60.9682 114.085C35.4799 125.754 11.7494 124.192 7.79437 110.813C-2.16657 78.0494 67.6577 73.7525 59.7963 47.19C55.9389 34.1529 25.1284 36.399 3.1557 51.1939C-0.799381 53.7818 2.96038 59.3482 6.81781 56.7115C23.2729 45.8229 51.1049 41.526 53.3998 49.0943C55.06 54.7096 50.519 58.6158 32.892 68.5768C15.9975 78.0982-5.53571 90.1588 1.30023 112.766Z" fill="#ffffff" fill-opacity="0.85"/>
  <path d="M88.7514 108.274L156.085 41.0377L146.076 31.0279L78.7416 98.2154L72.6381 111.692C72.0522 113.059 73.517 114.573 74.8842 114.036ZM161.261 35.9596L167.218 30.1002C170.246 27.0729 170.392 23.9479 167.658 21.2135L165.949 19.4557C163.263 16.8189 160.04 17.1119 157.111 19.9928L151.154 25.8521Z" fill="#ffffff" fill-opacity="0.85"/>
 </g>
</svg>
